<?xml version="1.0" standalone="no"?><!DOCTYPE svg PUBLIC "-//W3C//DTD SVG 1.1//EN" "http://www.w3.org/Graphics/SVG/1.1/DTD/svg11.dtd"><svg class="icon" height="512" viewBox="0 0 1024 1024" version="1.1" xmlns="http://www.w3.org/2000/svg"><path d="M829.664943 431.892521l-0.821715 318.437539c0 21.999037-27.321252 49.308009-49.305963 49.308009L302.907844 799.638069c-21.982664 0-49.306986-27.313066-49.306986-49.308009L253.600859 273.700639c0-22.00006 27.324322-49.305963 49.306986-49.305963l334.461491-0.821715 0-32.048927-336.686159-0.002047c-43.967374 0-80.135108 39.437198-80.135108 83.437317l0 477.985302c0 43.991933 35.643802 79.659271 79.610152 79.659271l477.6691 0c43.969421 0 83.802638-36.138058 83.802638-80.133062l0.083911-320.578296L829.664943 431.892521zM838.793858 295.106158c19.859303-19.196201 19.859303-50.964742 0-70.821999l-17.873066-17.865903c-19.853164-19.862373-51.628868-19.862373-71.482031 0l-33.905204 33.611515 89.112574 89.072665L838.793858 295.106158zM397.290445 642.36921 513.808182 614.130052 428.424536 529.413602ZM534.326495 598.24527 782.88757 350.766852 693.730994 261.646092 444.312388 508.892219Z" /></svg>