<?xml version="1.0" standalone="no"?><!DOCTYPE svg PUBLIC "-//W3C//DTD SVG 1.1//EN" "http://www.w3.org/Graphics/SVG/1.1/DTD/svg11.dtd"><svg class="icon" height="512" viewBox="0 0 1024 1024" version="1.1" xmlns="http://www.w3.org/2000/svg"><path d="M515.84 951.04c-6.4 0-12.8-1.28-19.2-5.12-17.92-10.24-464.64-247.04-464.64-513.28 0-133.12 78.08-247.04 197.12-290.56 101.12-35.84 208.64-12.8 286.72 61.44 93.44-72.96 208.64-93.44 309.76-51.2 107.52 44.8 174.08 152.32 174.08 279.04 0 266.24-446.72 504.32-464.64 513.28-5.12 5.12-12.8 6.4-19.2 6.4zM321.28 200.96c-23.04 0-46.08 3.84-69.12 12.8-88.32 32-145.92 116.48-145.92 216.32 0 174.08 279.04 366.08 409.6 439.04 130.56-72.96 409.6-264.96 409.6-439.04 0-97.28-47.36-174.08-126.72-207.36-83.2-34.56-181.76-11.52-257.28 62.72-8.96 7.68-20.48 12.8-32 11.52-11.52 0-23.04-6.4-30.72-15.36-40.96-52.48-97.28-80.64-157.44-80.64zM305.92 625.92c-7.68 0-16.64-2.56-23.04-8.96C153.6 492.8 198.4 363.52 200.96 358.4c6.4-16.64 25.6-25.6 42.24-19.2 16.64 6.4 25.6 24.32 19.2 42.24-1.28 3.84-30.72 96 65.28 189.44 12.8 12.8 12.8 33.28 1.28 46.08-5.12 6.4-14.08 8.96-23.04 8.96z" /></svg>